<svg viewBox="0 0 22 22" xmlns="http://www.w3.org/2000/svg" xmlns:xlink="http://www.w3.org/1999/xlink" width="22.000000" height="22.000000" fill="none" customFrame="#000000">
	<g id="004-instagram">
		<path id="Shape" d="M6.875 0L15.125 0C18.9214 0 22 3.07862 22 6.875L22 15.125C22 18.9214 18.9214 22 15.125 22L6.875 22C3.07862 22 0 18.9214 0 15.125L0 6.875C0 3.07862 3.07862 0 6.875 0ZM15.125 19.9375C17.7787 19.9375 19.9375 17.7787 19.9375 15.125L19.9375 6.875C19.9375 4.22125 17.7787 2.0625 15.125 2.0625L6.875 2.0625C4.22125 2.0625 2.0625 4.22125 2.0625 6.875L2.0625 15.125C2.0625 17.7787 4.22125 19.9375 6.875 19.9375L15.125 19.9375Z" fill="rgb(17,17,17)" fill-rule="evenodd" />
		<path id="Shape" d="M5.5 11C5.5 7.96263 7.96263 5.5 11 5.5C14.0374 5.5 16.5 7.96263 16.5 11C16.5 14.0374 14.0374 16.5 11 16.5C7.96263 16.5 5.5 14.0374 5.5 11ZM7.5625 11C7.5625 12.8948 9.10525 14.4375 11 14.4375C12.8948 14.4375 14.4375 12.8948 14.4375 11C14.4375 9.10388 12.8948 7.5625 11 7.5625C9.10525 7.5625 7.5625 9.10388 7.5625 11Z" fill="rgb(17,17,17)" fill-rule="evenodd" />
		<circle id="Oval" cx="16.9124413" cy="5.08736706" r="0.73287499" fill="rgb(17,17,17)" />
	</g>
</svg>
