<svg viewBox="0 0 24 24" xmlns="http://www.w3.org/2000/svg" xmlns:xlink="http://www.w3.org/1999/xlink" width="24.000000" height="24.000000" fill="none">
	<rect id="Hicon / Outline / Profile 1" width="24.000000" height="24.000000" x="0.000000" y="0.000000" />
	<g id="Profile 1">
		<path id="Vector" d="M12 1.25C9.37665 1.25 7.25 3.37665 7.25 6C7.25 8.62335 9.37665 10.75 12 10.75C14.6234 10.75 16.75 8.62335 16.75 6C16.75 3.37665 14.6234 1.25 12 1.25ZM8.75 6C8.75 4.20507 10.2051 2.75 12 2.75C13.7949 2.75 15.25 4.20507 15.25 6C15.25 7.79493 13.7949 9.25 12 9.25C10.2051 9.25 8.75 7.79493 8.75 6ZM4.25 17C4.25 14.3766 6.37665 12.25 9 12.25L15 12.25C17.6234 12.25 19.75 14.3766 19.75 17C19.75 19.6234 17.6234 21.75 15 21.75L9 21.75C6.37665 21.75 4.25 19.6234 4.25 17ZM9 13.75C7.20507 13.75 5.75 15.2051 5.75 17C5.75 18.7949 7.20507 20.25 9 20.25L15 20.25C16.7949 20.25 18.25 18.7949 18.25 17C18.25 15.2051 16.7949 13.75 15 13.75L9 13.75Z" fill="rgb(255,255,255)" fill-rule="evenodd" />
	</g>
</svg>
